<?xml version="1.0" encoding="utf-8"?>
<!-- Generator: Adobe Illustrator 16.0.0, SVG Export Plug-In . SVG Version: 6.00 Build 0)  -->
<!DOCTYPE svg PUBLIC "-//W3C//DTD SVG 1.1//EN" "http://www.w3.org/Graphics/SVG/1.1/DTD/svg11.dtd">
<svg version="1.1"
	 id="Layer_1" xmlns:dc="http://purl.org/dc/elements/1.1/" xmlns:cc="http://creativecommons.org/ns#" xmlns:rdf="http://www.w3.org/1999/02/22-rdf-syntax-ns#" xmlns:svg="http://www.w3.org/2000/svg" xmlns:sodipodi="http://sodipodi.sourceforge.net/DTD/sodipodi-0.dtd" xmlns:inkscape="http://www.inkscape.org/namespaces/inkscape" inkscape:version="0.91pre3 r13670" sodipodi:docname="tree.svg"
	 xmlns="http://www.w3.org/2000/svg" xmlns:xlink="http://www.w3.org/1999/xlink" x="0px" y="0px" width="595.281px"
	 height="841.891px" viewBox="0 0 595.281 841.891" enable-background="new 0 0 595.281 841.891" xml:space="preserve">
<sodipodi:namedview  id="namedview5" bordercolor="#666666" pagecolor="#ffffff" borderopacity="1" objecttolerance="10" gridtolerance="10" guidetolerance="10" showgrid="false" inkscape:zoom="3.6875" inkscape:cx="32" inkscape:cy="32" inkscape:pageopacity="0" inkscape:pageshadow="2" inkscape:window-maximized="1" inkscape:current-layer="Layer_1" inkscape:window-height="1017" inkscape:window-width="1920" inkscape:window-x="-8" inkscape:window-y="-8">
	</sodipodi:namedview>
<path id="path3" inkscape:connector-curvature="0" fill="#86CE26" d="M574.029,285.289c0-50.976-38.678-92.902-88.277-98.052
	c-13.926-37.547-49.965-64.364-92.363-64.364c-18.588,0-35.864,5.224-50.68,14.141c-16.859-30.176-49.086-50.61-86.113-50.61
	c-49.087,0-89.687,35.925-97.22,82.892c-4.003-0.488-8.054-0.827-12.188-0.827c-54.45,0-98.596,44.141-98.596,98.594
	c0,2.666,0.192,5.28,0.402,7.897c-27.611,17.477-45.987,48.193-45.987,83.278c0,31.017,14.351,58.652,36.743,76.738
	c-0.099,1.753-0.271,3.529-0.271,5.333c0,54.438,44.134,98.594,98.592,98.594c16.319,0,31.676-4.048,45.228-11.05
	c18.776,13.48,45.676,30.358,58.689,27.012c0,0,4.847,75.027,3.802,94.069c-1.989,36.266-12.865,76.612-20.518,109.28h118.52
	c0,0-17.458-72.806-18.21-97.113c-0.787-24.313,7.604-69.097,7.604-69.097l41.099-42.53c15.85,10.816,34.946,16.981,55.563,16.981
	c50.987,0,92.915-38.794,98.063-88.395c37.541-13.92,64.36-50.049,64.36-92.464c0-25.051-9.407-47.823-24.777-65.222
	C571.654,309.47,574.029,297.668,574.029,285.289L574.029,285.289z M206.079,511.586c7.898-7.558,14.524-16.372,19.591-26.151
	l19.353,40.548C245.013,525.982,234.484,530.628,206.079,511.586z M278.448,536.62c-10.007,1.823-27.077-29.024-39.172-54.106
	c13.423,6.861,28.578,10.802,44.688,10.802c4.141,0,8.201-0.355,12.197-0.851C293.045,512.54,287.565,534.961,278.448,536.62
	L278.448,536.62z M321.01,556.35c-23.165,6.44-9.292-41.538-2.651-69.32c4.787-1.795,9.434-3.894,13.85-6.394
	c2.684,20.255,11.48,38.509,24.501,52.97C345.416,543.622,332.42,553.19,321.01,556.35L321.01,556.35z"/>
</svg>
